# File created by Blade
# Date/Time:  Wed Jan 21 16:27:40 2015
# Frame Rate: 120.000 fps
#------------------------------------------------------
:FULLY-SPECIFIED
:DEGREES
456
root 15.644065 26.979996 -21.949797 -159.754198 64.438006 -188.919129
Spine 55.602237 -5.452122 -9.979071
Head -27.999853 -2.341482 18.952769
LeftShoulder 30.773102 -41.880456 -9.862074
LeftArm 21.360549 5.728174 -52.512107
LeftForeArm -29.801505 0.000000 1.603162
LeftHand -2.034150 -0.000000 2.915686
LeftHandThumb1 -26.253704 0.000000 33.147579
RightShoulder 9.653582 3.907759 1.233282
RightArm 53.478279 -3.323487 52.119834
RightForeArm -23.648539 -0.000000 27.405001
RightHand -3.337901 0.000000 -12.046863
RightHandThumb1 -24.326973 -0.000000 -32.862282
LeftUpLeg -11.524667 12.653535 0.672326
LeftLeg 46.857342 -0.000000 -0.000000
LeftFoot -52.937711 16.612014 -26.492347
LeftToeBase 13.867921 -0.000000 -0.000000
RightUpLeg -70.998789 -9.000183 12.269917
RightLeg -2.516272 -0.000000 0.000000
RightFoot 26.998113 -32.407179 -18.768134
RightToeBase 12.837685 -0.000000 -0.000000
457
root 15.673877 27.007912 -21.953416 -158.777499 64.436834 -188.664984
Spine 56.089561 -5.532993 -9.605380
Head -28.500575 -2.109928 18.914536
LeftShoulder 31.401601 -42.290396 -10.022942
LeftArm 21.752183 5.723013 -52.044435
LeftForeArm -30.684932 -0.000000 1.619888
LeftHand -1.726529 -0.000000 2.323326
LeftHandThumb1 -26.253704 0.000000 33.147579
RightShoulder 9.857099 4.174974 1.049050
RightArm 54.113603 -2.980001 51.757014
RightForeArm -23.579313 -0.000000 26.854053
RightHand -3.461406 -0.000000 -11.983581
RightHandThumb1 -24.326973 -0.000000 -32.862282
LeftUpLeg -11.970750 12.512596 0.597182
LeftLeg 46.245374 -0.000000 -0.000000
LeftFoot -53.082718 16.672134 -26.625637
LeftToeBase 13.840788 -0.000000 -0.000000
RightUpLeg -71.583675 -8.733272 12.175415
RightLeg -2.538513 -0.000000 0.000000
RightFoot 27.024203 -32.738619 -18.674750
RightToeBase 12.020896 -0.000000 -0.000000
458
root 15.708585 27.039968 -21.954032 -157.780156 64.408044 -188.421904
Spine 56.553871 -5.616822 -9.214943
Head -29.065636 -1.906106 18.887738
LeftShoulder 31.992653 -42.655696 -10.156221
LeftArm 22.196825 5.407493 -51.686656
LeftForeArm -31.236157 -0.000000 1.631853
LeftHand -1.936724 -0.000000 2.023322
LeftHandThumb1 -26.253704 0.000000 33.147579
RightShoulder 10.031313 4.422153 0.845637
RightArm 54.683086 -2.508606 51.626893
RightForeArm -23.619050 -0.000000 26.446555
RightHand -3.563046 0.000000 -11.529745
RightHandThumb1 -24.326973 -0.000000 -32.862282
LeftUpLeg -12.360472 12.435284 0.551601
LeftLeg 45.467659 -0.000000 -0.000000
LeftFoot -53.230077 16.618010 -26.725136
LeftToeBase 13.926112 -0.000000 -0.000000
RightUpLeg -72.181088 -8.461490 12.024575
RightLeg -2.580188 -0.000000 0.000000
RightFoot 27.063677 -33.189790 -18.579927
RightToeBase 11.709535 -0.000000 -0.000000
459
root 15.754829 27.082024 -21.957849 -156.867752 64.311008 -188.180123
Spine 57.130441 -5.753406 -8.791883
Head -29.651724 -1.579850 18.810042
LeftShoulder 32.642241 -43.010115 -10.322288
LeftArm 22.595750 5.184164 -51.253032
LeftForeArm -31.787710 -0.000000 1.602721
LeftHand -1.990269 -0.000000 1.913389
LeftHandThumb1 -26.253704 0.000000 33.147579
RightShoulder 10.291572 4.661715 0.605052
RightArm 55.191025 -1.957602 51.568516
RightForeArm -23.931401 -0.000000 26.027824
RightHand -3.725523 0.000000 -11.368142
RightHandThumb1 -24.326973 -0.000000 -32.862282
LeftUpLeg -12.530812 12.401281 0.580709
LeftLeg 44.415812 -0.000000 -0.000000
LeftFoot -53.348991 16.545095 -26.696527
LeftToeBase 14.026427 -0.000000 -0.000000
RightUpLeg -72.692664 -8.283344 11.945881
RightLeg -2.602716 -0.000000 0.000000
RightFoot 27.037107 -33.632110 -18.511954
RightToeBase 11.213757 -0.000000 -0.000000
460
root 15.798327 27.127134 -21.971465 -156.140588 64.207543 -188.247087
Spine 57.589745 -5.947599 -8.456949
Head -30.240863 -1.322876 18.708595
LeftShoulder 33.288107 -43.341406 -10.540620
LeftArm 22.929667 4.953719 -50.829211
LeftForeArm -32.505796 -0.000000 1.795367
LeftHand -2.320633 -0.000000 1.759820
LeftHandThumb1 -26.253704 0.000000 33.147579
RightShoulder 10.499881 4.939701 0.405380
RightArm 55.627250 -1.431749 51.508112
RightForeArm -24.075316 -0.000000 25.575424
RightHand -3.462698 -0.000000 -10.887787
RightHandThumb1 -24.326973 -0.000000 -32.862282
LeftUpLeg -12.687277 12.335514 0.468066
LeftLeg 43.147882 -0.000000 -0.000000
LeftFoot -53.401682 16.346296 -26.653895
LeftToeBase 13.971342 -0.000000 -0.000000
RightUpLeg -73.366580 -8.171141 11.800096
RightLeg -2.545889 -0.000000 0.000000
RightFoot 26.955618 -34.034544 -18.526288
RightToeBase 11.081036 -0.000000 -0.000000
461
root 15.847709 27.175506 -21.986458 -155.443320 64.106436 -188.358463
Spine 58.048825 -6.095605 -8.123966
Head -30.910297 -1.165380 18.760192
LeftShoulder 33.927279 -43.666090 -10.694349
LeftArm 23.290271 4.361203 -50.617455
LeftForeArm -32.538581 -0.000000 1.733209
LeftHand -1.849357 -0.000000 1.165114
LeftHandThumb1 -26.253704 0.000000 33.147579
RightShoulder 10.628523 5.220031 0.230928
RightArm 56.085162 -0.958091 51.415834
RightForeArm -23.855752 -0.000000 25.144118
RightHand -3.393793 -0.000000 -10.720264
RightHandThumb1 -24.326973 -0.000000 -32.862282
LeftUpLeg -12.743024 12.334637 0.361555
LeftLeg 41.672220 -0.000000 -0.000000
LeftFoot -53.433058 16.138086 -26.481947
LeftToeBase 14.217020 -0.000000 -0.000000
RightUpLeg -74.108823 -8.063860 11.638589
RightLeg -2.359174 -0.000000 0.000000
RightFoot 26.853291 -34.434039 -18.628860
RightToeBase 10.963650 -0.000000 -0.000000
462
root 15.902714 27.235394 -22.007043 -154.840959 64.053789 -188.571827
Spine 58.523962 -6.203706 -7.837979
Head -31.609591 -0.967941 18.763437
LeftShoulder 34.629366 -43.955234 -10.910159
LeftArm 23.625804 3.947255 -50.246229
LeftForeArm -33.127035 -0.000000 1.874626
LeftHand -1.853717 -0.000000 0.822478
LeftHandThumb1 -26.253704 0.000000 33.147579
RightShoulder 10.761290 5.587647 0.105390
RightArm 56.444699 -0.663826 50.987679
RightForeArm -23.432300 -0.000000 24.804608
RightHand -3.505273 -0.000000 -10.497591
RightHandThumb1 -24.326973 -0.000000 -32.862282
LeftUpLeg -12.651764 12.456126 0.207591
LeftLeg 39.905952 -0.000000 -0.000000
LeftFoot -53.320496 15.903800 -26.236993
LeftToeBase 14.268288 -0.000000 -0.000000
RightUpLeg -74.839132 -7.965964 11.480156
RightLeg -2.204828 -0.000000 0.000000
RightFoot 26.826406 -34.864317 -18.665301
RightToeBase 10.954214 -0.000000 -0.000000
